<?xml version="1.0" encoding="UTF-8"?>
<svg xmlns="http://www.w3.org/2000/svg" xmlns:xlink="http://www.w3.org/1999/xlink" viewBox="18 6 138 116">
  <defs>
    <linearGradient id="tsg" x1="39.8" y1="54.7" x2="153.5" y2="76.1" gradientTransform="translate(0 128) scale(1 -1)" gradientUnits="userSpaceOnUse">
      <stop offset="0" stop-color="#00b2bd"/>
      <stop offset=".7" stop-color="#09c0a1"/>
    </linearGradient>
  </defs>
  <path fill="url(#tsg)" d="M142.4,49.5c-1.1-1.5-2.6-2.4-4.5-2.7-.9-.1-1.8-.3-2.7-.4-1.1-.2-2.2-.3-3.4-.4-3-.3-4.9-1.5-6-3.8-.7-1.6-.8-3-.3-4.5l.4-1c.7-1.9,1.5-3.8,2.4-5.7.8-1.8.7-3.6-.2-5.3-1.7-3.1-4.4-5.3-7.9-6.5-2-.6-4-.4-5.8.7-.8.5-1.7,1-2.6,1.5-1.2.7-2.5,1.4-3.7,2.2-.8.6-1.8.9-3,.9-2.8,0-5.3-1.9-6.2-4s-.5-1.2-1.1-3.1-.7-2.4-1-3.5c-.7-2.4-2.4-4.2-4.6-4.8s-4.2-.9-7.2-.4-5.9,2.8-6.7,5.9c-.4,1.3-.9,2.7-1.4,4.1-.3.7-.5,1.4-.8,2.1-.7,2.1-3.4,3.8-6,3.8s-2-.3-2.9-.8c-1.5-1-3-1.9-4.5-2.7-.7-.4-1.5-.8-2.2-1.2-1.4-.8-2.9-1.1-4.4-.7-4.1.9-7.1,3.3-9,7.1-.7,1.5-.8,3.1,0,4.8.3.7.6,1.5.9,2.2.5,1.2.9,2.3,1.5,3.5,1.1,2.4,1,4.5-.4,6.5-.9,1.5-2.2,2.3-3.8,2.6-2.3.4-4.8.8-7.3,1.1-2.2.2-3.9,1.3-5.1,3.1-1.6,2.4-2.3,5.2-2,8.2.2,2.8,1.6,4.9,4.2,6,.9.4,1.8.9,2.7,1.4,1,.5,2,1.1,3.1,1.6,1.5.7,2.7,2.2,3.1,4.1.4,2-.2,4-1.4,5.2-1.7,1.7-3.5,3.6-5.1,5.5-.7.9-1.3,1.9-1.5,3-.7,4.1,2.8,10.1,6.9,11.5,1,.3,2.2.4,3.4.3,2.2-.3,4.4-.7,6.8-1.3,2.5-.6,4.4-.1,6.2,1.6,1.4,1.3,2,2.7,2,4.5,0,2.3-.1,4.7-.2,7.2-.1,1.8.6,3.4,2,4.8,2.2,2.1,5,3.3,8.3,3.6.4,0,.7,0,1.1,0,2.5,0,4.5-1,6-3,.5-.7,1.2-1.5,1.8-2.2.7-.8,1.4-1.6,2-2.5,1.1-1.5,3-2.4,5.2-2.4s4,.9,5.1,2.3c.9,1.2,1.8,2.3,2.8,3.4.6.7,1.2,1.3,1.7,2.1,1.1,1.3,2.5,2.1,4.2,2.2,4,.3,7.5-.8,10.6-3.5,1.5-1.2,2.1-2.9,2-4.9,0-.9,0-1.8,0-2.6,0-1.1,0-2.3-.2-3.4-.2-2.7.7-4.7,2.8-6.1,1.4-1,2.7-1.3,4.2-1.1,2.7.4,5.1.9,7.3,1.4,2.3.6,4.5,0,6.3-1.5,2.4-1.9,3.9-4.5,4.5-7.4.5-2.5,0-4.6-1.8-6.3-.7-.7-1.4-1.5-2-2.2-.7-.7-1.3-1.5-2-2.2-1.9-1.9-2.4-3.8-1.7-6.3.5-1.7,1.4-2.9,2.8-3.6,2.3-1.3,4.5-2.4,6.6-3.4,1.7-.9,2.8-2.2,3.2-4,1-3.7.4-7.2-1.9-10.4Z"/>
  <path fill="#fff" d="M89,60l.6-13.5c.2-3.1.3-5.3.3-6.8,0-.3-.1-.6-.4-.8-.2-.2-.5-.3-.9-.2-1.7.4-3.8.9-6.3,1.3-.5,0-.8.5-.8.9-.3,4.4-1.7,27.5-2.1,35.2s0,1.3,0,1.6c0,2.4.4,4.4,1.3,5.9.9,1.5,2.2,2.6,3.8,3.3,1.6.7,3.6,1,6.1,1s2.1,0,3.1-.2c1.1-.1,2.6-.4,4.4-.8.4-.1.7-.4.8-.8.2-1,.3-2.2.4-3.3.2-1.4.3-2.8.5-3.5,0-.4,0-.8-.3-1-.3-.3-.7-.3-1-.1-1.8.9-2.8,1.3-4.4,1.6-.5.1-2.7.5-4.2-.3-1.7-.9-1.5-3-1.5-4.2l.6-15.3Z"/>
  <path fill="#fff" d="M109.9,51.2l-1.7-3.6c-.3-.6-.8-1.1-1.4-1.3-.6-.2-1.3-.2-1.9.1l-12.9,6.1-9.2,4.4-5.4,2.6-2.1-4.4c-.3-.6-.8-1-1.4-1.3-.6-.2-1.3-.2-1.9,0l-3.7,1.7c-1.2.6-1.8,2.1-1.2,3.3l4.9,10.3c.3.6.8,1,1.4,1.3.3.1.5.2.8.2.4,0,.8,0,1.1-.2l7-3.3,9.3-4.4,17.3-8.2c1.2-.6,1.8-2.1,1.2-3.3Z"/>
</svg>
